<svg xmlns="http://www.w3.org/2000/svg" version="1.1" xmlns:xlink="http://www.w3.org/1999/xlink" xmlns:svgjs="http://svgjs.dev/svgjs" width="1500" height="1500" viewBox="0 0 1500 1500"><rect width="1500" height="1500" fill="#000000"></rect><g transform="matrix(0.6666666666666666,0,0,0.6666666666666666,250.00007343750008,187.66666666666674)"><svg viewBox="0 0 320 360" data-background-color="#2979ff" preserveAspectRatio="xMidYMid meet" height="1687" width="1500" xmlns="http://www.w3.org/2000/svg" xmlns:xlink="http://www.w3.org/1999/xlink"><g id="tight-bounds" transform="matrix(1,0,0,1,0.000023499999997511622,0)"><svg viewBox="0 0 320 360" height="360" width="320"><g><svg></svg></g><g><svg viewBox="0 0 320 360" height="360" width="320"><g><path transform="translate(-74.99272,-51.79039) scale(4.65793,4.65793)" d="M20.6 59.9l0.8 1-0.4-1.3c-0.1-0.6-0.8 0.1-0.4 0.3M21.5 59.3c0.3 0.5 0.6 1 0.6 1.5 0 0.7 0.6 1 1.1 1.2-0.7-0.8-1.1-3-1.7-2.7M59.9 16.9c1.7 0 3.3-0.2 5.1 0.2 4.4 1.1 8.1 3.3 10.6 6.4l7 11.2c0.3 2.8 0.9 5.9 0.8 9.3 0.7 0 0.6-1 1.4-1.2-0.8 2-1.2 4.5-1.4 7.4-0.5-1.6 0-4 0.1-5.3-0.7 1.1-1.1 0.3-1.1-0.2 0.1-0.8-0.3-0.7-0.6-1-1.1-1-1.8-2.1-2.6-3.8 0.5-1.3 0.6-3.2-1-4.2-0.5-0.3-1.1-0.8-1.4-1.6-0.4-1.1-1.1-2.4-0.9-4.1 0.1-0.5-1.5 1.1-2.4 0.4-3.9-2.7-7.8-5.8-12.5-8.4-2.5 0-4.3-0.9-5.2-2-0.8-1-0.2-2.3 1-2.4 0.7 0 1.5-0.2 2.1 0.2 0.1-0.4 0.5-0.9 1-0.9M50 14.6l0.2 0.1c1 0.2 1.5 1.6 2.6 1.1 0 0.7 0.1 1.4-0.1 1.9-0.3 0.8-1.2 0.8-1.9 0.8-6.7-0.4-10.6 2.4-14.7 4.8-1.1 0.7-2.3 1.2-3.2 2.1-4.3 4-9 7.7-10.1 15.1l-0.9 8.2c-0.1 0.9-1.1 1.8-0.9 2.9l0.7 4.9c-0.7-0.7-1.1 0.2-0.9 0.6 0.1 0.3 0.5 1.3 1.1 0.4 0.8 1.5 1.6 4.4 2.7 5.7 3.4 4 7.8 7.6 11.4 11.2 0.9-0.2 1.6-0.2 1.8-0.8 0.3 0.6-0.3 1.2-0.8 1.3 1.6 1 3.4 1.9 5.8 2.1 3.1 0.2 6 0.7 8.7 1.4 1.4-0.4 2.8-0.6 4.3-0.7 0.5 0 0.8-0.8 1.4-1l0.1-1c0.6 0.9 0.5-0.3 0.1-0.9 0.7 0.6 0.9 1.1 1.2 1.5 0-0.3 0.8-1.4 0.8-0.1l0.2-1.3c0.3-0.2 0.4 1.1 0.7 0.2 0.3-0.9 0.9-0.2 1.5-0.5-0.2 0.4-0.1 1.2 0.6 0.7l0.8-0.7c0.5 1.2 1.3 0.7 1.7 0.5 4.4-2.8 8.8-6.1 13-9.4l-0.1 1.3 0.5-1.6c0.5 0.5 0.9 0.1 1.1-0.2 0.6-1 1.4-2 2.7-2.9-1.6 4.3-3.5 7.7-5.9 10.5l-1 1.2c0 0.7-0.2 1.6-1 1.7-0.4 0.1-1.2-0.2-1.8 0.4-0.3 0.4 0.7 1.2-0.1 0.6-0.7-0.5-1.4 0-2.2 0.2-0.6 0.2 0.4 0.8 0.6 1.2 0.2 0.4 0.4 0.8 0.3 1.3l-1.1-1.2c-1.3 0.7-2.1 2-3.2 3-0.5 0.4-0.3 1.1-0.3 1.7-0.7 0-1.5-0.2-1.9 0.2-0.3 0.4-0.2 1-0.2 1.6-1-0.1-1.1-1.6-2-1.3-0.9 0.2-1.9 0.3-2.7 0.8 0.6 1.2-1 0.5-0.8 0.7-1.5-0.9-2.8-1.6-4.4-1-3.4-1.1-7.6-0.6-10.7-0.2 0-0.5 0.1-1-0.1-1.1-0.2 0.5-0.8 0.3-0.7 0.3-1.9-1.3-3.8-2.1-5.8-3.2-1.8 0.2-3.5-0.7-4-1.2-1.4-1.3-3-0.6-4.3-0.9-2.8-0.7-3.8-3.6-4.1-5.6-0.2-1-1-1.4-1.3-1.3-1.3-4.2-3.3-8-4.9-11.9-0.4-1-0.3-2-0.3-3.1 0.5 0.2 1 0.1 0.9-0.6-0.5-3.3-1.7-5.8-3-8.2 0.7-3.4 0.8-7.4 2.4-10.4 1.4-2.7 4-4.1 5.8-6.4 0.6-0.8 0.6-1.9 1.2-2.6 2-2 4-4.1 6.2-5.9 1-0.8 2.2 0 3.7-0.3 0.5-1.8 2.5-3.4 4.4-2.9 0.8 0.2 2.4-1.9 2.9-2.1 0.8-0.3 0.4 0.8 0.4 1.5 1.9-1.5 4.5-2.3 6.9-3.2" fill="#ffffff" fill-rule="nonzero" stroke="none" stroke-width="1" stroke-linecap="butt" stroke-linejoin="miter" stroke-miterlimit="10" stroke-dasharray="" stroke-dashoffset="0" font-family="none" font-weight="none" font-size="none" text-anchor="none" style="mix-blend-mode: normal" data-fill-palette-color="tertiary"></path></g><g transform="matrix(1,0,0,1,80.82410800577469,90)"><svg viewBox="0 0 158.35178398845062 180" height="180" width="158.35178398845062"><g><svg viewBox="0 0 158.35178398845062 180" height="180" width="158.35178398845062"><g><svg viewBox="0 0 192 218.24825164281467" height="180" width="158.35178398845062"><g transform="matrix(1,0,0,1,0,130.6538169460895)"><svg viewBox="0 0 192 87.59443469672516" height="87.59443469672516" width="192"><g id="textblocktransform"><svg viewBox="0 0 192 87.59443469672516" height="87.59443469672516" width="192" id="textblock"><g><svg viewBox="0 0 192 65.77607655502393" height="65.77607655502393" width="192"><g transform="matrix(1,0,0,1,0,0)"><svg width="192" viewBox="2.15 -35.35 104.49 35.800000000000004" height="65.77607655502393" data-palette-color="#ffffff"><path d="M22.15-5L22.15-1.3Q19.2 0.25 14.95 0.25L14.95 0.25Q9.2 0.25 5.68-3.28 2.15-6.8 2.15-12.6L2.15-12.6Q2.15-18.65 5.3-22.15 8.45-25.65 13.4-25.65L13.4-25.65Q18.15-25.65 20.95-22.6 23.75-19.55 23.75-13.95L23.75-13.95Q23.75-12.35 23.5-11L23.5-11 6.2-11Q6.65-7.25 9.05-5.25 11.45-3.25 15.35-3.25L15.35-3.25Q19.6-3.25 22.15-5L22.15-5ZM13.4-22.2L13.4-22.2Q10.55-22.2 8.55-20.15 6.55-18.1 6.2-14.3L6.2-14.3 19.8-14.3 19.8-15.3Q19.8-18.45 18.1-20.33 16.4-22.2 13.4-22.2ZM33.65-13.85L33.65 0 29.7 0 29.75-25.35 33.65-25.35 33.65-20.9Q35.65-25.6 40.55-25.6L40.55-25.6Q41.45-25.6 41.95-25.5L41.95-25.5 41.95-21.6Q40.9-21.95 39.8-21.95L39.8-21.95Q37.15-21.95 35.4-19.5 33.65-17.05 33.65-13.85L33.65-13.85ZM48.65-12.4L48.65-12.4Q48.65-8.3 50.65-5.75 52.65-3.2 55.7-3.2L55.7-3.2Q58.8-3.2 60.97-5.5 63.15-7.8 63.15-12.85L63.15-12.85Q63.15-17.65 60.9-19.9 58.65-22.15 55.95-22.15L55.95-22.15Q52.8-22.15 50.72-19.63 48.65-17.1 48.65-12.4ZM67.09-35.35L67.09 0 63.15 0 63.15-3.75Q60.45 0.4 55.35 0.4L55.35 0.4Q50.3 0.4 47.42-3.35 44.55-7.1 44.55-12.45L44.55-12.45Q44.55-18.4 47.6-22.08 50.65-25.75 55.45-25.75L55.45-25.75Q60.4-25.75 63.15-21.5L63.15-21.5 63.15-35.35 67.09-35.35ZM96.69-12.6L96.69-12.6Q96.69-6.95 93.49-3.25 90.29 0.45 84.69 0.45L84.69 0.45Q79.24 0.45 76.07-3.23 72.89-6.9 72.89-12.5L72.89-12.5Q72.89-18.15 76.17-21.93 79.44-25.7 84.69-25.7L84.69-25.7Q90.44-25.7 93.57-22 96.69-18.3 96.69-12.6ZM76.99-12.55L76.99-12.55Q76.99-8.6 79.09-5.83 81.19-3.05 84.69-3.05L84.69-3.05Q88.49-3.05 90.54-5.78 92.59-8.5 92.59-12.55L92.59-12.55Q92.59-16.75 90.64-19.48 88.69-22.2 84.69-22.2L84.69-22.2Q81.09-22.2 79.04-19.4 76.99-16.6 76.99-12.55ZM106.64-35.35L106.64 0 102.69 0 102.69-35.35 106.64-35.35Z" opacity="1" transform="matrix(1,0,0,1,0,0)" fill="#ffffff" class="wordmark-text-0" data-fill-palette-color="primary" id="text-0"></path></svg></g></svg></g><g transform="matrix(1,0,0,1,0,75.37438475023924)"><svg viewBox="0 0 192 12.220049946485908" height="12.220049946485908" width="192"><g transform="matrix(1,0,0,1,0,0)"><svg width="192" viewBox="1.8 -35.9 700.6700000000001 44.599999999999994" height="12.220049946485908" data-palette-color="#ffffff"><path d="M18.9-10.65L15.75 0 10.6 0 1.8-33.7 6.05-33.7 9.2-21.2 13.35-4.25Q16.15-14.5 18.1-21.2L18.1-21.2 21.6-33.2 25.65-33.2 29.35-21.2 34.45-4.1Q36.75-15.15 38.15-21.15L38.15-21.15 41-33.7 45.1-33.7 37.2 0 32 0 28.75-10.65 23.7-27.5Q22.15-21.6 18.9-10.65L18.9-10.65ZM70.55-17.35L70.55 0 66.6 0 66.6-16.4Q66.6-19.15 65.17-20.65 63.75-22.15 61.45-22.15L61.45-22.15Q58.65-22.15 56.55-20 54.45-17.85 54.45-13.85L54.45-13.85 54.45 0 50.55 0 50.55-35.35 54.45-35.35 54.45-20.95Q56.7-25.7 62.45-25.7L62.45-25.7Q66.1-25.7 68.32-23.45 70.55-21.2 70.55-17.35L70.55-17.35ZM96.05-5L96.05-1.3Q93.1 0.25 88.85 0.25L88.85 0.25Q83.1 0.25 79.57-3.28 76.05-6.8 76.05-12.6L76.05-12.6Q76.05-18.65 79.2-22.15 82.35-25.65 87.3-25.65L87.3-25.65Q92.05-25.65 94.85-22.6 97.65-19.55 97.65-13.95L97.65-13.95Q97.65-12.35 97.4-11L97.4-11 80.1-11Q80.55-7.25 82.95-5.25 85.35-3.25 89.25-3.25L89.25-3.25Q93.5-3.25 96.05-5L96.05-5ZM87.3-22.2L87.3-22.2Q84.45-22.2 82.45-20.15 80.45-18.1 80.1-14.3L80.1-14.3 93.7-14.3 93.7-15.3Q93.7-18.45 92-20.33 90.3-22.2 87.3-22.2ZM107.54-13.85L107.54 0 103.59 0 103.64-25.35 107.54-25.35 107.54-20.9Q109.54-25.6 114.44-25.6L114.44-25.6Q115.34-25.6 115.84-25.5L115.84-25.5 115.84-21.6Q114.79-21.95 113.69-21.95L113.69-21.95Q111.04-21.95 109.29-19.5 107.54-17.05 107.54-13.85L107.54-13.85ZM138.44-5L138.44-1.3Q135.49 0.25 131.24 0.25L131.24 0.25Q125.49 0.25 121.97-3.28 118.44-6.8 118.44-12.6L118.44-12.6Q118.44-18.65 121.59-22.15 124.74-25.65 129.69-25.65L129.69-25.65Q134.44-25.65 137.24-22.6 140.04-19.55 140.04-13.95L140.04-13.95Q140.04-12.35 139.79-11L139.79-11 122.49-11Q122.94-7.25 125.34-5.25 127.74-3.25 131.64-3.25L131.64-3.25Q135.89-3.25 138.44-5L138.44-5ZM129.69-22.2L129.69-22.2Q126.84-22.2 124.84-20.15 122.84-18.1 122.49-14.3L122.49-14.3 136.09-14.3 136.09-15.3Q136.09-18.45 134.39-20.33 132.69-22.2 129.69-22.2ZM186.34-17L186.34-17Q186.34-11.2 184.11-7.03 181.89-2.85 177.84-0.95L177.84-0.95 187.84 5.25 183.44 7.1 173.44 0.25Q172.39 0.4 171.24 0.4L171.24 0.4Q164.39 0.4 160.24-4.35 156.09-9.1 156.09-17L156.09-17Q156.09-24.95 160.16-29.65 164.24-34.35 171.19-34.35L171.19-34.35Q178.29-34.35 182.31-29.68 186.34-25 186.34-17ZM160.34-17L160.34-17Q160.34-10.75 163.31-7.1 166.29-3.45 171.24-3.45L171.24-3.45Q176.39-3.45 179.21-7.05 182.04-10.65 182.04-17 182.04-23.35 179.19-26.95 176.34-30.55 171.19-30.55L171.19-30.55Q166.09-30.55 163.21-26.93 160.34-23.3 160.34-17ZM212.48-25.35L212.48 0 208.53 0 208.53-4.4Q206.53 0.3 200.58 0.3L200.58 0.3Q196.83 0.3 194.66-1.93 192.48-4.15 192.48-7.9L192.48-7.9 192.48-25.35 196.43-25.35 196.43-8.9Q196.43-6.15 197.83-4.7 199.23-3.25 201.63-3.25L201.63-3.25Q204.78-3.25 206.66-5.45 208.53-7.65 208.53-11.4L208.53-11.4 208.53-25.35 212.48-25.35ZM227.53-3.05L227.53-3.05Q230.23-3.05 231.83-4.58 233.43-6.1 233.43-8.45L233.43-8.45 233.43-11.7 229.03-11.7Q225.83-11.7 224.23-10.45 222.63-9.2 222.63-7.3 222.63-5.4 223.88-4.23 225.13-3.05 227.53-3.05ZM233.48 0L233.48-3Q231.53 0.25 226.38 0.25L226.38 0.25Q222.83 0.25 220.66-1.85 218.48-3.95 218.48-7.15L218.48-7.15Q218.48-10.8 221.26-12.83 224.03-14.85 228.83-14.85L228.83-14.85 233.43-14.85 233.43-16.15Q233.43-19.15 232.08-20.68 230.73-22.2 227.53-22.2L227.53-22.2Q223.48-22.2 220.33-20.05L220.33-20.05 220.33-24Q223.18-25.75 227.83-25.75L227.83-25.75Q237.38-25.75 237.38-16.05L237.38-16.05 237.38 0 233.48 0ZM248.53-35.35L248.53 0 244.58 0 244.58-35.35 248.53-35.35ZM260.18-25.35L260.18 0 256.23 0 256.23-25.35 260.18-25.35ZM260.03-35.15Q260.78-34.4 260.78-33.3 260.78-32.2 260.03-31.48 259.28-30.75 258.18-30.75 257.08-30.75 256.35-31.48 255.63-32.2 255.63-33.3 255.63-34.4 256.35-35.15 257.08-35.9 258.18-35.9 259.28-35.9 260.03-35.15ZM280.37-4.4L280.37-0.65Q278.72 0.25 276.67 0.25L276.67 0.25Q269.17 0.25 269.17-7.4L269.17-7.4 269.17-22.15 265.12-22.15 265.12-25.35 269.17-25.35 269.17-31.65 273.12-31.65 273.12-25.35 280.12-25.35 280.12-22.15 273.12-22.15 273.12-7.3Q273.12-3.25 276.92-3.25L276.92-3.25Q278.87-3.25 280.37-4.4L280.37-4.4ZM306.27-25.35L297.12-0.65Q295.17 4.5 292.5 6.6 289.82 8.7 286.37 8.7L286.37 8.7Q285.07 8.7 284.27 8.45L284.27 8.45 284.27 4.9Q285.02 5.1 285.97 5.1L285.97 5.1Q291.02 5.1 293.12-0.65L293.12-0.65 282.87-25.35 287.32-25.35 290.62-17 295.07-5.5Q295.47-6.8 299.07-17L299.07-17 302.02-25.35 306.27-25.35ZM326.92-13.3L325.97 0 321.92 0 324.37-33.7 329.52-33.7 333.97-21.4 339.37-5.7Q342.27-13.9 345.06-21.4L345.06-21.4 349.72-33.7 354.87-33.7 357.82 0 353.77 0 352.62-13.3 351.42-28.25Q348.77-20.85 345.97-13.3L345.97-13.3 341.27-0.75 337.42-0.75 332.97-13.3 327.87-27.95Q327.87-26 326.92-13.3L326.92-13.3ZM383.41-5L383.41-1.3Q380.46 0.25 376.21 0.25L376.21 0.25Q370.46 0.25 366.94-3.28 363.41-6.8 363.41-12.6L363.41-12.6Q363.41-18.65 366.56-22.15 369.71-25.65 374.66-25.65L374.66-25.65Q379.41-25.65 382.21-22.6 385.01-19.55 385.01-13.95L385.01-13.95Q385.01-12.35 384.76-11L384.76-11 367.46-11Q367.91-7.25 370.31-5.25 372.71-3.25 376.61-3.25L376.61-3.25Q380.86-3.25 383.41-5L383.41-5ZM374.66-22.2L374.66-22.2Q371.81-22.2 369.81-20.15 367.81-18.1 367.46-14.3L367.46-14.3 381.06-14.3 381.06-15.3Q381.06-18.45 379.36-20.33 377.66-22.2 374.66-22.2ZM409.51-5L409.51-1.3Q406.56 0.25 402.31 0.25L402.31 0.25Q396.56 0.25 393.04-3.28 389.51-6.8 389.51-12.6L389.51-12.6Q389.51-18.65 392.66-22.15 395.81-25.65 400.76-25.65L400.76-25.65Q405.51-25.65 408.31-22.6 411.11-19.55 411.11-13.95L411.11-13.95Q411.11-12.35 410.86-11L410.86-11 393.56-11Q394.01-7.25 396.41-5.25 398.81-3.25 402.71-3.25L402.71-3.25Q406.96-3.25 409.51-5L409.51-5ZM400.76-22.2L400.76-22.2Q397.91-22.2 395.91-20.15 393.91-18.1 393.56-14.3L393.56-14.3 407.16-14.3 407.16-15.3Q407.16-18.45 405.46-20.33 403.76-22.2 400.76-22.2ZM429.81-4.4L429.81-0.65Q428.16 0.25 426.11 0.25L426.11 0.25Q418.61 0.25 418.61-7.4L418.61-7.4 418.61-22.15 414.56-22.15 414.56-25.35 418.61-25.35 418.61-31.65 422.56-31.65 422.56-25.35 429.56-25.35 429.56-22.15 422.56-22.15 422.56-7.3Q422.56-3.25 426.36-3.25L426.36-3.25Q428.31-3.25 429.81-4.4L429.81-4.4ZM450.81-6.75L450.81-6.75Q450.81-3.5 448.53-1.6 446.26 0.3 442.31 0.3L442.31 0.3Q437.71 0.3 434.86-1.25L434.86-1.25 434.86-5.1Q438.21-3.1 442.06-3.1L442.06-3.1Q444.36-3.1 445.56-4 446.76-4.9 446.76-6.45L446.76-6.45Q446.76-8.25 445.43-9.25 444.11-10.25 441.01-11.5L441.01-11.5Q438.16-12.6 436.43-14.25 434.71-15.9 434.71-18.7L434.71-18.7Q434.71-21.85 437.08-23.73 439.46-25.6 443.01-25.6L443.01-25.6Q446.96-25.6 449.36-24.5L449.36-24.5 449.36-20.75Q447.06-22.15 443.06-22.15L443.06-22.15Q441.06-22.15 439.88-21.23 438.71-20.3 438.71-18.85L438.71-18.85Q438.71-17.95 439.06-17.28 439.41-16.6 440.43-15.95 441.46-15.3 441.93-15.08 442.41-14.85 444.01-14.15L444.01-14.15Q447.21-12.85 449.01-11.2 450.81-9.55 450.81-6.75ZM472-33.7L472 0 467.95 0 467.95-33.7 472-33.7ZM499.8-17.45L499.8 0 495.85 0 495.85-16.4Q495.85-19.2 494.42-20.68 493-22.15 490.7-22.15L490.7-22.15Q487.85-22.15 485.77-19.95 483.7-17.75 483.7-13.85L483.7-13.85 483.7 0 479.8 0 479.8-25.35 483.7-25.35 483.7-20.95Q485.95-25.7 491.7-25.7L491.7-25.7Q495.4-25.7 497.6-23.45 499.8-21.2 499.8-17.45L499.8-17.45ZM526.8-17.45L526.8 0 522.85 0 522.85-16.4Q522.85-19.2 521.42-20.68 520-22.15 517.7-22.15L517.7-22.15Q514.85-22.15 512.77-19.95 510.7-17.75 510.7-13.85L510.7-13.85 510.7 0 506.8 0 506.8-25.35 510.7-25.35 510.7-20.95Q512.95-25.7 518.7-25.7L518.7-25.7Q522.4-25.7 524.6-23.45 526.8-21.2 526.8-17.45L526.8-17.45ZM556.09-12.6L556.09-12.6Q556.09-6.95 552.89-3.25 549.69 0.45 544.09 0.45L544.09 0.45Q538.64 0.45 535.47-3.23 532.29-6.9 532.29-12.5L532.29-12.5Q532.29-18.15 535.57-21.93 538.84-25.7 544.09-25.7L544.09-25.7Q549.84-25.7 552.97-22 556.09-18.3 556.09-12.6ZM536.39-12.55L536.39-12.55Q536.39-8.6 538.49-5.83 540.59-3.05 544.09-3.05L544.09-3.05Q547.89-3.05 549.94-5.78 551.99-8.5 551.99-12.55L551.99-12.55Q551.99-16.75 550.04-19.48 548.09-22.2 544.09-22.2L544.09-22.2Q540.49-22.2 538.44-19.4 536.39-16.6 536.39-12.55ZM582.24-25.35L573.19 0 568.34 0 559.49-25.35 563.59-25.35 567.09-14.65 570.79-3.1Q571.24-5.25 574.54-14.65L574.54-14.65 578.14-25.35 582.24-25.35ZM594.89-3.05L594.89-3.05Q597.59-3.05 599.19-4.58 600.79-6.1 600.79-8.45L600.79-8.45 600.79-11.7 596.39-11.7Q593.19-11.7 591.59-10.45 589.99-9.2 589.99-7.3 589.99-5.4 591.24-4.23 592.49-3.05 594.89-3.05ZM600.84 0L600.84-3Q598.89 0.25 593.74 0.25L593.74 0.25Q590.19 0.25 588.01-1.85 585.84-3.95 585.84-7.15L585.84-7.15Q585.84-10.8 588.61-12.83 591.39-14.85 596.19-14.85L596.19-14.85 600.79-14.85 600.79-16.15Q600.79-19.15 599.44-20.68 598.09-22.2 594.89-22.2L594.89-22.2Q590.84-22.2 587.69-20.05L587.69-20.05 587.69-24Q590.54-25.75 595.19-25.75L595.19-25.75Q604.74-25.75 604.74-16.05L604.74-16.05 604.74 0 600.84 0ZM624.44-4.4L624.44-0.65Q622.79 0.25 620.74 0.25L620.74 0.25Q613.24 0.25 613.24-7.4L613.24-7.4 613.24-22.15 609.19-22.15 609.19-25.35 613.24-25.35 613.24-31.65 617.19-31.65 617.19-25.35 624.19-25.35 624.19-22.15 617.19-22.15 617.19-7.3Q617.19-3.25 620.99-3.25L620.99-3.25Q622.94-3.25 624.44-4.4L624.44-4.4ZM634.33-25.35L634.33 0 630.38 0 630.38-25.35 634.33-25.35ZM634.18-35.15Q634.93-34.4 634.93-33.3 634.93-32.2 634.18-31.48 633.43-30.75 632.33-30.75 631.23-30.75 630.51-31.48 629.78-32.2 629.78-33.3 629.78-34.4 630.51-35.15 631.23-35.9 632.33-35.9 633.43-35.9 634.18-35.15ZM664.13-12.6L664.13-12.6Q664.13-6.95 660.93-3.25 657.73 0.45 652.13 0.45L652.13 0.45Q646.68 0.45 643.5-3.23 640.33-6.9 640.33-12.5L640.33-12.5Q640.33-18.15 643.6-21.93 646.88-25.7 652.13-25.7L652.13-25.7Q657.88-25.7 661-22 664.13-18.3 664.13-12.6ZM644.43-12.55L644.43-12.55Q644.43-8.6 646.53-5.83 648.63-3.05 652.13-3.05L652.13-3.05Q655.93-3.05 657.98-5.78 660.03-8.5 660.03-12.55L660.03-12.55Q660.03-16.75 658.08-19.48 656.13-22.2 652.13-22.2L652.13-22.2Q648.53-22.2 646.48-19.4 644.43-16.6 644.43-12.55ZM689.93-17.45L689.93 0 685.98 0 685.98-16.4Q685.98-19.2 684.55-20.68 683.13-22.15 680.83-22.15L680.83-22.15Q677.98-22.15 675.9-19.95 673.83-17.75 673.83-13.85L673.83-13.85 673.83 0 669.93 0 669.93-25.35 673.83-25.35 673.83-20.95Q676.08-25.7 681.83-25.7L681.83-25.7Q685.53-25.7 687.73-23.45 689.93-21.2 689.93-17.45L689.93-17.45ZM701.47-33.7L701.47-10.2 697.62-10.2 697.62-33.7 701.47-33.7ZM702.47-2.55L702.47-2.55Q702.47-1.3 701.62-0.45 700.77 0.4 699.47 0.4 698.17 0.4 697.35-0.45 696.52-1.3 696.52-2.55L696.52-2.55Q696.52-3.75 697.37-4.63 698.22-5.5 699.47-5.5 700.72-5.5 701.6-4.63 702.47-3.75 702.47-2.55Z" opacity="1" transform="matrix(1,0,0,1,0,0)" fill="#ffffff" class="slogan-text-1" data-fill-palette-color="secondary" id="text-1"></path></svg></g></svg></g></svg></g></svg></g><g transform="matrix(1,0,0,1,42.50991823571901,0)"><svg viewBox="0 0 106.98016352856197 121.05550875087418" height="121.05550875087418" width="106.98016352856197"><g><svg xmlns="http://www.w3.org/2000/svg" xmlns:xlink="http://www.w3.org/1999/xlink" version="1.1" x="0" y="0" viewBox="22.46439261005535 18.118000000000002 56.34915946790763 63.763" enable-background="new 0 0 100 100" xml:space="preserve" height="121.05550875087418" width="106.98016352856197" class="icon-icon-0" data-fill-palette-color="accent" id="icon-0"><g fill="#ffffff" data-fill-palette-color="accent"><path fill="#ffffff" d="M78.263 46.514c-0.13-0.498-0.461-0.917-0.912-1.162-0.451-0.245-0.984-0.291-1.471-0.129-5.105 1.703-12.401 3.731-18.168 3.731-2.174 0-3.908-0.294-5.154-0.877-7.573-3.534-7.562-11.632-7.554-18.138 0.001-0.7 0.002-1.379-0.006-2.027-0.072-5.4-4.477-9.794-9.819-9.794-4.271 0-7.931 2.592-9.253 6.498l-2.956 3.142c-0.352 0.373-0.534 0.875-0.502 1.388 0.032 0.514 0.275 0.99 0.671 1.318l3.642 3.012c-3.712 15.109-2.61 26.626 3.284 34.239 4.659 6.02 12.175 9.279 21.759 9.476v0.976h-0.56c-1.026 0-1.857 0.833-1.857 1.858s0.831 1.856 1.857 1.856h4.837c1.025 0 1.857-0.831 1.857-1.856s-0.832-1.858-1.857-1.858h-0.562v-1.043c7.578-0.458 13.809-3.76 18.024-9.561C78.497 60.771 79.663 51.831 78.263 46.514zM70.557 65.378c-3.605 4.966-8.763 7.672-15.325 8.045-0.84 0.047-1.676 0.072-2.486 0.072-0.001 0-0.002 0-0.002 0-6.162 0-14.588-1.399-19.742-8.054-5.302-6.85-6.086-17.677-2.334-32.185 0.181-0.699-0.059-1.438-0.615-1.898l-3.02-2.496 1.891-2.009c0.203-0.216 0.353-0.479 0.434-0.764 0.726-2.547 3.064-4.256 5.821-4.256 3.378 0 6.059 2.691 6.104 6.128 0.009 0.63 0.009 1.29 0.006 1.973-0.008 6.759-0.021 16.975 9.698 21.511 1.742 0.812 4.006 1.225 6.726 1.225 5.508-0.002 12.134-1.649 17.302-3.263C75.476 53.889 74.197 60.37 70.557 65.378z" data-fill-palette-color="accent"></path><path fill="#ffffff" d="M52.142 54.698c-4.674 0-8.397 2.984-9.054 7.255-0.037 0.243-0.026 0.489 0.033 0.729 1.01 4.071 4.84 6.598 9.997 6.598 4.159 0 9.391-1.873 11.047-5.991 0.243-0.604 0.152-1.288-0.238-1.808C60.692 57.17 56.397 54.698 52.142 54.698zM53.117 65.564c-1.234 0-5.224-0.252-6.286-3.417 0.529-2.248 2.613-3.733 5.31-3.733 2.779 0 5.67 1.574 8.063 4.361C58.923 64.416 56.103 65.564 53.117 65.564z" data-fill-palette-color="accent"></path><circle fill="#ffffff" cx="33.627" cy="26.508" r="1.1" data-fill-palette-color="accent"></circle><path fill="#ffffff" d="M34.349 45.268c-0.32-0.401-0.905-0.467-1.306-0.145-0.512 0.411-1.225 0.411-1.736 0-0.401-0.322-0.985-0.256-1.305 0.145-0.321 0.401-0.257 0.984 0.144 1.305 0.597 0.478 1.313 0.718 2.03 0.718 0.717 0 1.432-0.24 2.03-0.718C34.605 46.252 34.67 45.667 34.349 45.268z" data-fill-palette-color="accent"></path><path fill="#ffffff" d="M39.777 45.268c-0.321-0.401-0.906-0.467-1.307-0.145-0.511 0.411-1.225 0.411-1.737 0-0.402-0.322-0.985-0.256-1.306 0.145s-0.257 0.984 0.144 1.305c0.598 0.478 1.315 0.718 2.031 0.718 0.715 0 1.431-0.24 2.03-0.718C40.034 46.252 40.097 45.669 39.777 45.268z" data-fill-palette-color="accent"></path><path fill="#ffffff" d="M35.643 47.715c-0.511 0.41-1.226 0.41-1.736 0-0.402-0.321-0.985-0.257-1.307 0.144-0.32 0.401-0.255 0.984 0.145 1.305 0.598 0.479 1.313 0.718 2.03 0.718s1.432-0.239 2.03-0.718c0.401-0.321 0.464-0.904 0.144-1.305C36.627 47.458 36.043 47.395 35.643 47.715z" data-fill-palette-color="accent"></path><path fill="#ffffff" d="M41.089 47.715c-0.512 0.41-1.226 0.41-1.738 0-0.4-0.321-0.985-0.257-1.305 0.144-0.321 0.401-0.255 0.984 0.144 1.305 0.598 0.479 1.314 0.718 2.03 0.718s1.433-0.239 2.03-0.718c0.4-0.321 0.465-0.904 0.144-1.305C42.075 47.458 41.49 47.395 41.089 47.715z" data-fill-palette-color="accent"></path></g></svg></g></svg></g><g></g></svg></g></svg></g></svg></g></svg></g><defs></defs></svg><rect width="320" height="360" fill="none" stroke="none" visibility="hidden"></rect></g></svg></g></svg>